<svg width="16" height="16" viewBox="0 0 16 16" fill="none" xmlns="http://www.w3.org/2000/svg">
<path d="M12.6666 14.6666H3.33325C2.22869 14.6666 1.33325 13.7712 1.33325 12.6666V1.99992C1.33325 1.63173 1.63173 1.33325 1.99992 1.33325H11.3333C11.7015 1.33325 11.9999 1.63173 11.9999 1.99992V9.99992H14.6666V12.6666C14.6666 13.7712 13.7712 14.6666 12.6666 14.6666ZM11.9999 11.3333V12.6666C11.9999 13.0348 12.2984 13.3333 12.6666 13.3333C13.0348 13.3333 13.3333 13.0348 13.3333 12.6666V11.3333H11.9999ZM10.6666 13.3333V2.66659H2.66659V12.6666C2.66659 13.0348 2.96507 13.3333 3.33325 13.3333H10.6666ZM3.99992 4.66658H9.33325V5.99992H3.99992V4.66658ZM3.99992 7.33325H9.33325V8.66658H3.99992V7.33325ZM3.99992 9.99992H7.33325V11.3333H3.99992V9.99992Z" fill="black" fill-opacity="0.4"/>
</svg>
