<svg width="24" height="24" viewBox="0 0 24 24" fill="none" xmlns="http://www.w3.org/2000/svg">
<path fill-rule="evenodd" clip-rule="evenodd" d="M5.57982 2.04698C4.84682 2.18698 4.17982 2.86798 4.04282 3.61698C3.98182 3.95098 3.98182 20.049 4.04282 20.383C4.18382 21.151 4.84882 21.816 5.61682 21.957C5.94982 22.017 18.0498 22.017 18.3828 21.957C19.1508 21.816 19.8158 21.151 19.9568 20.383C20.0178 20.049 20.0178 3.95098 19.9568 3.61698C19.8158 2.84898 19.1508 2.18398 18.3828 2.04298C18.0768 1.98698 5.87482 1.99098 5.57982 2.04698ZM15.3398 8.06598C15.7088 8.19198 15.9998 8.60398 15.9998 8.99998C15.9998 9.24198 15.8808 9.52098 15.7008 9.70098C15.3898 10.013 15.5448 9.99998 11.9978 9.99998C8.57782 9.99998 8.67182 10.006 8.37382 9.77798C8.27796 9.6952 8.19592 9.59764 8.13082 9.48898C8.03582 9.32798 8.01982 9.25598 8.01982 8.99998C8.01982 8.74398 8.03582 8.67198 8.13082 8.51098C8.25582 8.29798 8.44882 8.13598 8.66982 8.05698C8.78982 8.01398 9.44482 8.00298 11.9828 8.00198C14.8248 7.99998 15.1648 8.00698 15.3398 8.06598ZM12.3398 13.066C12.7088 13.192 12.9998 13.604 12.9998 14C12.9998 14.396 12.7088 14.808 12.3398 14.934C12.0608 15.029 8.94482 15.034 8.67782 14.939C8.44604 14.8619 8.25112 14.7016 8.13082 14.489C8.03582 14.328 8.01982 14.256 8.01982 14C8.01982 13.744 8.03582 13.672 8.13082 13.511C8.19182 13.408 8.30382 13.275 8.38082 13.217C8.65482 13.008 8.69382 13.004 10.4828 13.002C11.9288 13 12.1708 13.009 12.3398 13.066Z" fill="url(#paint0_linear_2131_47)"/>
<defs>
<linearGradient id="paint0_linear_2131_47" x1="11.9998" y1="2.00293" x2="11.9998" y2="22.002" gradientUnits="userSpaceOnUse">
<stop stop-color="#FF9256" stop-opacity="0.82"/>
<stop offset="0.82689" stop-color="#FF965D" stop-opacity="0.42"/>
</linearGradient>
</defs>
</svg>
