<svg width="16" height="16" viewBox="0 0 16 16" fill="none" xmlns="http://www.w3.org/2000/svg">
<path d="M1.33325 14.6667C1.33325 11.7212 3.72107 9.33342 6.66659 9.33342C9.61212 9.33342 11.9999 11.7212 11.9999 14.6667H10.6666C10.6666 12.4576 8.87572 10.6667 6.66659 10.6667C4.45745 10.6667 2.66659 12.4576 2.66659 14.6667H1.33325ZM6.66659 8.66675C4.45659 8.66675 2.66659 6.87675 2.66659 4.66675C2.66659 2.45675 4.45659 0.666748 6.66659 0.666748C8.87659 0.666748 10.6666 2.45675 10.6666 4.66675C10.6666 6.87675 8.87659 8.66675 6.66659 8.66675ZM6.66659 7.33342C8.13992 7.33342 9.33325 6.14008 9.33325 4.66675C9.33325 3.19341 8.13992 2.00008 6.66659 2.00008C5.19325 2.00008 3.99992 3.19341 3.99992 4.66675C3.99992 6.14008 5.19325 7.33342 6.66659 7.33342ZM12.1891 9.80195C14.0429 10.6375 15.3333 12.5014 15.3333 14.6667H13.9999C13.9999 13.0427 13.0321 11.6448 11.6418 11.0181L12.1891 9.80195ZM11.7307 2.27555C13.0629 2.82477 13.9999 4.13582 13.9999 5.66675C13.9999 7.58021 12.5361 9.15022 10.6666 9.31848V7.97648C11.7977 7.81488 12.6666 6.84275 12.6666 5.66675C12.6666 4.74632 12.1343 3.95077 11.3606 3.57098L11.7307 2.27555Z" fill="black" fill-opacity="0.4"/>
</svg>
