<svg width="14" height="14" viewBox="0 0 14 14" fill="none" xmlns="http://www.w3.org/2000/svg">
<path d="M9.33341 0.583252C9.65559 0.583252 9.91675 0.844422 9.91675 1.16659V1.74992H12.8334V5.24992H11.6558L13.2576 9.65053C13.3603 9.91355 13.4167 10.1999 13.4167 10.4993C13.4167 11.788 12.3721 12.8327 11.0834 12.8327C9.99637 12.8327 9.08299 12.0893 8.82376 11.0833H6.34325C6.08419 12.0896 5.17065 12.8333 4.08341 12.8333C2.94913 12.8333 2.00388 12.0239 1.79368 10.9512C1.42106 10.7564 1.16675 10.3662 1.16675 9.91658V4.08325C1.16675 3.76109 1.42792 3.49992 1.75008 3.49992H5.83341C6.15559 3.49992 6.41675 3.76109 6.41675 4.08325V6.99992C6.41675 7.32209 6.67791 7.58325 7.00008 7.58325H8.16675C8.48892 7.58325 8.75008 7.32209 8.75008 6.99992V1.74992H7.00008V0.583252H9.33341ZM4.08341 9.33325C3.43908 9.33325 2.91675 9.85557 2.91675 10.4999C2.91675 11.1443 3.43908 11.6666 4.08341 11.6666C4.72775 11.6666 5.25008 11.1443 5.25008 10.4999C5.25008 9.85557 4.72775 9.33325 4.08341 9.33325ZM11.0834 9.33267C10.4391 9.33267 9.91675 9.85499 9.91675 10.4993C9.91675 11.1437 10.4391 11.666 11.0834 11.666C11.7278 11.666 12.2501 11.1437 12.2501 10.4993C12.2501 10.3592 12.2253 10.2247 12.18 10.1002L12.1705 10.0749C12.0007 9.64044 11.578 9.33267 11.0834 9.33267ZM10.4143 5.24992H9.91675V6.99992C9.91675 7.96644 9.13327 8.74992 8.16675 8.74992H7.00008C6.03356 8.74992 5.25008 7.96644 5.25008 6.99992H2.33341V8.95654C2.76096 8.47214 3.38651 8.16658 4.08341 8.16658C5.17065 8.16658 6.08419 8.91022 6.34325 9.91658H8.82346C9.08229 8.90993 9.99596 8.166 11.0834 8.166C11.2215 8.166 11.3569 8.17802 11.4884 8.20106L10.4143 5.24992ZM5.25008 4.66658H2.33341V5.83325H5.25008V4.66658ZM11.6667 2.91659H9.91675V4.08325H11.6667V2.91659Z" fill="black" fill-opacity="0.4"/>
</svg>
