<svg width="14" height="14" viewBox="0 0 14 14" fill="none" xmlns="http://www.w3.org/2000/svg">
<path d="M6.99996 12.8334C3.7783 12.8334 1.16663 10.2217 1.16663 7.00008C1.16663 3.77842 3.7783 1.16675 6.99996 1.16675C10.2216 1.16675 12.8333 3.77842 12.8333 7.00008C12.8333 10.2217 10.2216 12.8334 6.99996 12.8334ZM6.99996 11.6667C9.5773 11.6667 11.6666 9.57742 11.6666 7.00008C11.6666 4.42275 9.5773 2.33341 6.99996 2.33341C4.42263 2.33341 2.33329 4.42275 2.33329 7.00008C2.33329 9.57742 4.42263 11.6667 6.99996 11.6667ZM6.41663 8.75008H7.58329V9.91675H6.41663V8.75008ZM6.41663 4.08342H7.58329V7.58342H6.41663V4.08342Z" fill="black"/>
</svg>
