<svg width="16" height="16" viewBox="0 0 16 16" fill="none" xmlns="http://www.w3.org/2000/svg">
<path d="M3.8418 11.3333H13.3333V3.33333H2.66659V12.2567L3.8418 11.3333ZM4.30295 12.6667L1.33325 15V2.66667C1.33325 2.29848 1.63173 2 1.99992 2H13.9999C14.3681 2 14.6666 2.29848 14.6666 2.66667V12C14.6666 12.3682 14.3681 12.6667 13.9999 12.6667H4.30295ZM7.33325 9.33333H8.66659V10.6667H7.33325V9.33333ZM5.71146 5.87564C5.92417 4.80613 6.86792 4 7.99992 4C9.28859 4 10.3333 5.04467 10.3333 6.33333C10.3333 7.622 9.28859 8.66667 7.99992 8.66667H7.33325V7.33333H7.99992C8.55219 7.33333 8.99992 6.8856 8.99992 6.33333C8.99992 5.78105 8.55219 5.33333 7.99992 5.33333C7.51479 5.33333 7.11032 5.67882 7.01912 6.13718L5.71146 5.87564Z" fill="black" fill-opacity="0.4"/>
</svg>
