<svg width="14" height="14" viewBox="0 0 14 14" fill="none" xmlns="http://www.w3.org/2000/svg">
<path fill-rule="evenodd" clip-rule="evenodd" d="M3.25481 1.19392C2.82723 1.27559 2.43815 1.67284 2.35823 2.10975C2.32265 2.30459 2.32265 11.6951 2.35823 11.8899C2.44048 12.3379 2.8284 12.7258 3.2764 12.8081C3.47065 12.8431 10.529 12.8431 10.7232 12.8081C11.1712 12.7258 11.5591 12.3379 11.6414 11.8899C11.6583 11.7948 11.6665 10.8166 11.6665 8.793V5.83434L9.66565 5.82792L7.66481 5.8215L7.52248 5.75559C7.32909 5.65907 7.17257 5.50194 7.07681 5.30817L7.01148 5.16817L7.00506 3.16734L6.99865 1.1665L5.18506 1.16884C4.14673 1.17059 3.3219 1.18109 3.25481 1.19392ZM8.16648 2.92642V4.6665H11.6461L11.6315 4.614C11.6028 4.53662 11.5703 4.46069 11.5341 4.3865C11.4536 4.21792 11.4005 4.16134 10.0361 2.79692C8.67165 1.4325 8.61506 1.37942 8.44648 1.29892C8.37229 1.26273 8.29637 1.23022 8.21898 1.2015L8.16648 1.18692V2.92642ZM7.1999 6.96834C7.30081 7.00159 7.39823 7.08909 8.00956 7.69692C8.7154 8.39867 8.77898 8.47567 8.8099 8.67109C8.84956 8.92542 8.65765 9.21942 8.40156 9.29584C8.24406 9.34192 8.20556 9.3425 8.05273 9.297C7.95823 9.269 7.89173 9.2235 7.75698 9.09575L7.58315 8.93067V9.75784C7.58315 10.7017 7.57731 10.7402 7.40815 10.9093C7.32052 10.9974 7.20676 11.0547 7.08386 11.0728C6.96096 11.0909 6.83551 11.0688 6.72623 11.0097C6.59229 10.935 6.49069 10.8135 6.44098 10.6684C6.4264 10.6159 6.41648 10.2525 6.41648 9.75492V8.92892L6.2549 9.08467C6.06123 9.27192 5.94048 9.332 5.75673 9.33259C5.68282 9.33605 5.60901 9.32375 5.54022 9.29649C5.47142 9.26924 5.40922 9.22765 5.35773 9.1745C5.29951 9.12278 5.25343 9.05883 5.22278 8.98724C5.19212 8.91565 5.17765 8.83817 5.1804 8.76034C5.17923 8.51534 5.21831 8.464 5.99006 7.69692C6.56815 7.12234 6.70231 6.99984 6.78981 6.9695C6.92865 6.92167 7.05931 6.92109 7.1999 6.96834Z" fill="#FF9256"/>
</svg>
