<svg width="16" height="16" viewBox="0 0 16 16" fill="none" xmlns="http://www.w3.org/2000/svg">
<path fill-rule="evenodd" clip-rule="evenodd" d="M2.3867 2.69806C1.89803 2.79139 1.45336 3.24539 1.36203 3.74472C1.32203 3.96539 1.32203 10.0347 1.36203 10.2554C1.45936 10.7887 1.9147 11.2261 2.46003 11.3107L2.66003 11.3421L2.67803 11.5174C2.7047 11.7801 2.74136 11.9087 2.86536 12.1734C3.0707 12.6114 3.38536 12.9274 3.8267 13.1361C4.08831 13.2637 4.37559 13.3301 4.6667 13.3301C4.9578 13.3301 5.24508 13.2637 5.5067 13.1361C5.93282 12.9412 6.27455 12.5995 6.46936 12.1734C6.5767 11.9461 6.6667 11.5994 6.6667 11.4107V11.3334H8.65936L8.67803 11.5134C8.7047 11.7801 8.74136 11.9074 8.86536 12.1734C9.0707 12.6114 9.38536 12.9274 9.8267 13.1361C10.0883 13.2637 10.3756 13.3301 10.6667 13.3301C10.9578 13.3301 11.2451 13.2637 11.5067 13.1361C11.9328 12.9412 12.2746 12.5995 12.4694 12.1734C12.5767 11.9461 12.6667 11.5994 12.6667 11.4107V11.3334H13.0487C13.2587 11.3334 13.5014 11.3201 13.5887 11.3047C14.1007 11.2107 14.544 10.7674 14.638 10.2554C14.6754 10.0494 14.6774 7.18339 14.64 6.98739C14.586 6.70139 14.4867 6.54406 13.8907 5.80006C13.284 5.04206 13.2307 4.98339 13.0427 4.86739C12.7767 4.70206 12.684 4.68539 11.98 4.67272L11.3334 4.66206V4.28272C11.3334 4.07406 11.32 3.83206 11.3047 3.74472C11.2107 3.23272 10.7674 2.78939 10.2554 2.69539C10.0514 2.65872 2.5827 2.66072 2.3867 2.69806ZM12.8394 6.61672L13.3334 7.23272V8.66672H11.3334V6.00006H12.346L12.8394 6.61672ZM4.89336 10.7107C5.13936 10.7947 5.33336 11.0694 5.33336 11.3334C5.33336 11.4947 5.25403 11.6807 5.13403 11.8007C5.06194 11.8734 4.97399 11.9283 4.87708 11.9612C4.78018 11.9942 4.67696 12.0042 4.57553 11.9905C4.47411 11.9768 4.37724 11.9398 4.29254 11.8823C4.20783 11.8249 4.1376 11.7486 4.08736 11.6594C4.02403 11.5521 4.01336 11.5041 4.01336 11.3334C4.01336 11.1627 4.02403 11.1147 4.08736 11.0074C4.16391 10.8696 4.28737 10.7639 4.43529 10.7094C4.58321 10.655 4.74576 10.6554 4.89336 10.7107ZM10.8934 10.7107C11.1394 10.7947 11.3334 11.0694 11.3334 11.3334C11.3334 11.4947 11.254 11.6807 11.134 11.8007C11.0619 11.8734 10.974 11.9283 10.8771 11.9612C10.7802 11.9942 10.677 12.0042 10.5755 11.9905C10.4741 11.9768 10.3772 11.9398 10.2925 11.8823C10.2078 11.8249 10.1376 11.7486 10.0874 11.6594C10.024 11.5521 10.0134 11.5041 10.0134 11.3334C10.0134 11.1627 10.024 11.1147 10.0874 11.0074C10.1639 10.8696 10.2874 10.7639 10.4353 10.7094C10.5832 10.655 10.7458 10.6554 10.8934 10.7107Z" fill="#FF9256"/>
</svg>
