<svg width="15" height="15" viewBox="0 0 15 15" fill="none" xmlns="http://www.w3.org/2000/svg">
<path d="M1.25 3.625H10C10.069 3.625 10.125 3.68096 10.125 3.75V5.5H12.248L13.875 7.69922V10.75H12.6689L12.6084 11.1787C12.4914 11.996 11.7872 12.625 10.9375 12.625C10.0878 12.625 9.38356 11.996 9.2666 11.1787L9.20605 10.75H5.16895L5.10742 11.1787C4.99051 11.996 4.2872 12.625 3.4375 12.625C2.5878 12.625 1.88449 11.996 1.76758 11.1787L1.70605 10.75H1.125V3.75C1.125 3.68097 1.18097 3.625 1.25 3.625ZM13.625 7.78223L13.5273 7.64941L12.2715 5.95312L12.1221 5.75H10.125V8.625H13.625V7.78223Z" stroke="black" stroke-opacity="0.4"/>
</svg>
