<svg width="16" height="16" viewBox="0 0 16 16" fill="none" xmlns="http://www.w3.org/2000/svg">
<path d="M0.666748 14.6667C0.666748 11.7212 3.05456 9.33342 6.00008 9.33342C8.94561 9.33342 11.3334 11.7212 11.3334 14.6667H10.0001C10.0001 12.4576 8.20921 10.6667 6.00008 10.6667C3.79094 10.6667 2.00008 12.4576 2.00008 14.6667H0.666748ZM6.00008 8.66675C3.79008 8.66675 2.00008 6.87675 2.00008 4.66676C2.00008 2.45676 3.79008 0.666762 6.00008 0.666762C8.21008 0.666762 10.0001 2.45676 10.0001 4.66676C10.0001 6.87675 8.21008 8.66675 6.00008 8.66675ZM6.00008 7.33342C7.47341 7.33342 8.66675 6.1401 8.66675 4.66676C8.66675 3.19343 7.47341 2.0001 6.00008 2.0001C4.52675 2.0001 3.33341 3.19343 3.33341 4.66676C3.33341 6.1401 4.52675 7.33342 6.00008 7.33342ZM14.3651 0.522461C14.9849 1.77109 15.3334 3.17824 15.3334 4.66676C15.3334 6.15529 14.9849 7.56242 14.3651 8.81108L13.2685 8.01348C13.7381 6.99528 14.0001 5.86162 14.0001 4.66676C14.0001 3.4719 13.7381 2.33821 13.2685 1.32001L14.3651 0.522461ZM12.1643 2.12309C12.4881 2.90692 12.6667 3.76598 12.6667 4.66676C12.6667 5.56754 12.4881 6.4266 12.1643 7.21041L11.0463 6.39738C11.2324 5.85471 11.3334 5.27253 11.3334 4.66676C11.3334 4.06099 11.2324 3.47881 11.0463 2.93614L12.1643 2.12309Z" fill="black" fill-opacity="0.4"/>
</svg>
