<svg width="14" height="14" viewBox="0 0 14 14" fill="none" xmlns="http://www.w3.org/2000/svg">
<g clip-path="url(#clip0_2092_1529)">
<path fill-rule="evenodd" clip-rule="evenodd" d="M6.40216 1.75123C6.43631 1.90207 6.40916 2.0603 6.32668 2.19112C6.2442 2.32195 6.11315 2.41467 5.96233 2.4489C5.84785 2.4749 5.73441 2.50526 5.62224 2.5399C5.54905 2.5625 5.47212 2.57046 5.39585 2.56332C5.31957 2.55619 5.24545 2.53411 5.17772 2.49833C5.10998 2.46255 5.04996 2.41378 5.00107 2.35481C4.95218 2.29583 4.91538 2.2278 4.89279 2.15461C4.87019 2.08141 4.86223 2.00448 4.86936 1.92821C4.87649 1.85194 4.89858 1.77782 4.93436 1.71008C4.97013 1.64234 5.0189 1.58232 5.07788 1.53343C5.13685 1.48454 5.20488 1.44775 5.27808 1.42515C5.41808 1.38198 5.56041 1.34348 5.70391 1.3114C5.77864 1.2944 5.85598 1.2923 5.93153 1.30521C6.00707 1.31812 6.07933 1.34579 6.14417 1.38663C6.20902 1.42748 6.26518 1.4807 6.30944 1.54326C6.35371 1.60582 6.38522 1.67649 6.40216 1.75123ZM7.59799 1.75123C7.63222 1.60041 7.72494 1.46936 7.85577 1.38688C7.9866 1.3044 8.14482 1.27725 8.29566 1.3114C10.8938 1.90056 12.834 4.2234 12.834 7.00006C12.834 10.2218 10.2218 12.8334 7.00066 12.8334C4.22341 12.8334 1.90058 10.8938 1.31141 8.29565C1.28117 8.1463 1.31057 7.99105 1.39331 7.8631C1.47606 7.73515 1.60558 7.64466 1.75419 7.61098C1.90279 7.57729 2.05868 7.60309 2.18851 7.68286C2.31834 7.76263 2.4118 7.89003 2.44891 8.03781C2.63454 8.85084 3.03464 9.59927 3.60759 10.2052C4.18053 10.8112 4.9054 11.2526 5.70676 11.4834C6.50812 11.7142 7.35669 11.7261 8.1642 11.5178C8.97171 11.3095 9.70865 10.8886 10.2983 10.2989C10.888 9.70922 11.3089 8.97228 11.5172 8.16477C11.7255 7.35727 11.7137 6.50869 11.4828 5.70733C11.252 4.90597 10.8106 4.1811 10.2047 3.60816C9.5987 3.03521 8.85027 2.63511 8.03724 2.44948C7.88641 2.41513 7.75539 2.32227 7.67302 2.19132C7.59064 2.06038 7.56366 1.90207 7.59799 1.75123ZM3.85824 2.7534C3.91041 2.80957 3.951 2.87547 3.97768 2.94733C4.00436 3.0192 4.01662 3.09562 4.01375 3.17222C4.01088 3.24883 3.99293 3.32412 3.96095 3.39378C3.92896 3.46345 3.88355 3.52612 3.82733 3.57823C3.74099 3.65756 3.65816 3.74098 3.57824 3.82673C3.47228 3.93699 3.32725 4.00123 3.17438 4.00562C3.02152 4.01 2.87304 3.95418 2.76093 3.85017C2.64881 3.74617 2.58203 3.60229 2.57495 3.44953C2.56787 3.29676 2.62106 3.14733 2.72308 3.0334C2.82224 2.92606 2.92608 2.82223 3.03341 2.72248C3.08958 2.67031 3.15548 2.62973 3.22735 2.60304C3.29921 2.57636 3.37563 2.56411 3.45224 2.56698C3.52884 2.56985 3.60413 2.58779 3.67379 2.61978C3.74346 2.65177 3.80614 2.69717 3.85824 2.7534ZM7.00008 3.50006C7.15479 3.50006 7.30316 3.56152 7.41256 3.67092C7.52195 3.78032 7.58341 3.92869 7.58341 4.0834V6.75856L9.16249 8.33765C9.26875 8.44767 9.32755 8.59502 9.32622 8.74796C9.32489 8.90091 9.26354 9.04722 9.15539 9.15538C9.04723 9.26353 8.90093 9.32488 8.74798 9.32621C8.59503 9.32754 8.44768 9.26874 8.33766 9.16248L6.58766 7.41248C6.47826 7.30311 6.41678 7.15476 6.41674 7.00006V4.0834C6.41674 3.92869 6.4782 3.78032 6.5876 3.67092C6.69699 3.56152 6.84537 3.50006 7.00008 3.50006ZM2.15433 4.89306C2.30214 4.93865 2.4258 5.04107 2.4981 5.17781C2.57041 5.31455 2.58545 5.47441 2.53991 5.62223C2.50528 5.7344 2.47492 5.84784 2.44891 5.96231C2.4118 6.1101 2.31834 6.2375 2.18851 6.31727C2.05868 6.39704 1.90279 6.42284 1.75419 6.38915C1.60558 6.35547 1.47606 6.26498 1.39331 6.13702C1.31057 6.00907 1.28117 5.85383 1.31141 5.70448C1.34408 5.5604 1.38199 5.41865 1.42516 5.27865C1.47074 5.13084 1.57316 5.00718 1.7099 4.93487C1.84664 4.86256 2.0065 4.84753 2.15433 4.89306Z" fill="black"/>
</g>
<defs>
<clipPath id="clip0_2092_1529">
<rect width="14" height="14" fill="white"/>
</clipPath>
</defs>
</svg>
