<svg width="14" height="14" viewBox="0 0 14 14" fill="none" xmlns="http://www.w3.org/2000/svg">
<g clip-path="url(#clip0_2092_1502)">
<path d="M4.8084 1.76748C4.95847 1.80508 5.08745 1.90075 5.16698 2.03345C5.24651 2.16614 5.27007 2.325 5.23248 2.47506L2.89915 11.8084C2.88166 11.8838 2.84932 11.955 2.80401 12.0179C2.75871 12.0807 2.70136 12.1338 2.63529 12.1743C2.56922 12.2147 2.49577 12.2415 2.41922 12.2532C2.34267 12.265 2.26455 12.2613 2.18941 12.2426C2.11428 12.2238 2.04364 12.1902 1.98161 12.1438C1.91958 12.0975 1.86741 12.0392 1.82813 11.9725C1.78886 11.9057 1.76327 11.8318 1.75286 11.7551C1.74244 11.6783 1.74742 11.6003 1.76748 11.5255L4.10082 2.19215C4.11937 2.11779 4.15239 2.04782 4.198 1.98623C4.24361 1.92464 4.3009 1.87264 4.36661 1.8332C4.43233 1.79376 4.50516 1.76766 4.58097 1.75638C4.65677 1.74511 4.73405 1.74888 4.8084 1.76748ZM9.89915 2.19156L12.2325 11.5249C12.2526 11.5997 12.2575 11.6777 12.2471 11.7545C12.2367 11.8312 12.2111 11.9051 12.1718 11.9719C12.1326 12.0386 12.0804 12.0969 12.0184 12.1433C11.9563 12.1896 11.8857 12.2232 11.8106 12.242C11.7354 12.2608 11.6573 12.2644 11.5807 12.2527C11.5042 12.2409 11.4307 12.2141 11.3647 12.1737C11.2986 12.1333 11.2413 12.0801 11.196 12.0173C11.1506 11.9545 11.1183 11.8833 11.1008 11.8078L8.76748 2.47448C8.74741 2.39968 8.74244 2.32163 8.75286 2.24489C8.76327 2.16815 8.78886 2.09425 8.82813 2.0275C8.86741 1.96075 8.91958 1.90249 8.98161 1.85612C9.04364 1.80975 9.11428 1.77619 9.18941 1.75741C9.26455 1.73862 9.34267 1.73499 9.41922 1.74672C9.49577 1.75844 9.56922 1.7853 9.63529 1.82571C9.70135 1.86612 9.75871 1.91929 9.80401 1.9821C9.84932 2.04491 9.88166 2.11612 9.89915 2.19156ZM6.99998 9.91665C7.14286 9.91667 7.28076 9.96912 7.38753 10.0641C7.4943 10.159 7.56252 10.2898 7.57923 10.4317L7.58332 10.5V11.6666C7.58315 11.8153 7.52622 11.9583 7.42416 12.0664C7.32209 12.1746 7.18259 12.2396 7.03417 12.2483C6.88575 12.257 6.7396 12.2088 6.62558 12.1133C6.51157 12.0179 6.43829 11.8825 6.42073 11.7349L6.41665 11.6666V10.5C6.41665 10.3453 6.47811 10.1969 6.5875 10.0875C6.6969 9.97811 6.84527 9.91665 6.99998 9.91665ZM6.99998 5.83331C7.15469 5.83331 7.30307 5.89477 7.41246 6.00417C7.52186 6.11357 7.58332 6.26194 7.58332 6.41665V7.58331C7.58332 7.73802 7.52186 7.8864 7.41246 7.99579C7.30307 8.10519 7.15469 8.16665 6.99998 8.16665C6.84527 8.16665 6.6969 8.10519 6.5875 7.99579C6.47811 7.8864 6.41665 7.73802 6.41665 7.58331V6.41665C6.41665 6.26194 6.47811 6.11357 6.5875 6.00417C6.6969 5.89477 6.84527 5.83331 6.99998 5.83331ZM6.99998 1.74998C7.14286 1.75 7.28076 1.80246 7.38753 1.8974C7.4943 1.99234 7.56252 2.12317 7.57923 2.26506L7.58332 2.33331V3.49998C7.58315 3.64866 7.52622 3.79167 7.42416 3.89978C7.32209 4.00789 7.18259 4.07295 7.03417 4.08166C6.88575 4.09038 6.7396 4.04209 6.62558 3.94666C6.51157 3.85123 6.43829 3.71587 6.42073 3.56823L6.41665 3.49998V2.33331C6.41665 2.1786 6.47811 2.03023 6.5875 1.92084C6.6969 1.81144 6.84527 1.74998 6.99998 1.74998Z" fill="black"/>
</g>
<defs>
<clipPath id="clip0_2092_1502">
<rect width="14" height="14" fill="white"/>
</clipPath>
</defs>
</svg>
