<svg width="14" height="14" viewBox="0 0 14 14" fill="none" xmlns="http://www.w3.org/2000/svg">
<g clip-path="url(#clip0_2092_1557)">
<path fill-rule="evenodd" clip-rule="evenodd" d="M3.96547 1.68223C4.6815 1.39544 5.46409 1.31726 6.2227 1.45673C6.9813 1.59621 7.68491 1.94763 8.25211 2.47033C8.81931 2.99304 9.22691 3.66567 9.42774 4.41039C9.62858 5.1551 9.61444 5.94146 9.38697 6.67848L11.9501 8.84731C12.181 9.04352 12.3688 9.28543 12.5015 9.5578C12.6342 9.83017 12.7091 10.1271 12.7214 10.4298C12.7336 10.7326 12.683 11.0346 12.5728 11.3168C12.4625 11.599 12.295 11.8553 12.0807 12.0696C11.8665 12.2838 11.6102 12.4514 11.328 12.5616C11.0457 12.6719 10.7437 12.7225 10.441 12.7102C10.1383 12.6979 9.84133 12.6231 9.56896 12.4903C9.29659 12.3576 9.05468 12.1699 8.85847 11.939L6.69022 9.37581C5.95314 9.60336 5.16669 9.61753 4.42189 9.41668C3.67709 9.21582 3.0044 8.80816 2.48166 8.24087C1.95893 7.67359 1.60752 6.96987 1.46812 6.21116C1.32873 5.45245 1.40703 4.66978 1.69397 3.95373C1.9028 3.43223 2.5573 3.36631 2.89739 3.73615L4.7658 5.76498L5.6093 5.59698L5.77847 4.75173L3.74847 2.88623C3.37864 2.54615 3.44339 1.89106 3.96547 1.68223ZM5.13622 2.57823L6.74797 4.0599C6.9358 4.23256 7.0198 4.4904 6.96964 4.73948L6.69547 6.11265C6.66722 6.25396 6.59774 6.38374 6.49578 6.48559C6.39383 6.58744 6.26398 6.65679 6.12264 6.6849L4.7518 6.95731C4.62912 6.98171 4.50222 6.97413 4.3833 6.93531C4.26439 6.89649 4.15746 6.82773 4.0728 6.73565L2.5888 5.12448C2.5284 5.62623 2.59935 6.13507 2.79471 6.60116C2.99006 7.06725 3.30313 7.4746 3.70324 7.78333C4.10335 8.09206 4.57679 8.29157 5.07719 8.36233C5.57758 8.43309 6.08778 8.37267 6.5578 8.18698C6.70036 8.13041 6.85706 8.11997 7.00586 8.15712C7.15466 8.19426 7.28806 8.27713 7.3873 8.39406L9.7498 11.1859C9.84143 11.2946 9.95464 11.3831 10.0823 11.4458C10.2099 11.5085 10.3491 11.544 10.4912 11.55C10.6332 11.5561 10.775 11.5326 10.9075 11.481C11.04 11.4294 11.1603 11.3508 11.2608 11.2503C11.3614 11.1497 11.4399 11.0294 11.4915 10.8969C11.5431 10.7644 11.5667 10.6227 11.5606 10.4806C11.5546 10.3386 11.5191 10.1993 11.4564 10.0717C11.3937 9.94406 11.3052 9.83085 11.1965 9.73923L8.40522 7.37673C8.28829 7.27749 8.20542 7.14408 8.16827 6.99528C8.13113 6.84648 8.14157 6.68978 8.19814 6.54723C8.38401 6.07721 8.44457 5.56696 8.37388 5.06648C8.3032 4.56601 8.1037 4.09249 7.79493 3.69233C7.48616 3.29216 7.07872 2.97909 6.61254 2.78378C6.14636 2.58848 5.63743 2.51765 5.13564 2.57823H5.13622Z" fill="black"/>
</g>
<defs>
<clipPath id="clip0_2092_1557">
<rect width="14" height="14" fill="white"/>
</clipPath>
</defs>
</svg>
