<svg width="14" height="14" viewBox="0 0 14 14" fill="none" xmlns="http://www.w3.org/2000/svg">
<g clip-path="url(#clip0_2092_1585)">
<path fill-rule="evenodd" clip-rule="evenodd" d="M7.58326 1.75C7.87759 1.74991 8.16109 1.86107 8.37691 2.06121C8.59273 2.26134 8.72493 2.53566 8.74701 2.82917L8.74992 2.91667V7H9.33326C9.62759 6.99991 9.91109 7.11107 10.1269 7.31121C10.3427 7.51134 10.4749 7.78566 10.497 8.07917L10.4999 8.16667V9.625C10.4998 9.69788 10.5269 9.76818 10.5761 9.82204C10.6252 9.8759 10.6926 9.90942 10.7652 9.91601C10.8378 9.9226 10.9102 9.90177 10.9682 9.85762C11.0262 9.81348 11.0656 9.74922 11.0786 9.6775L11.0833 9.625V7C10.8498 6.9994 10.6217 6.92935 10.4282 6.79875C10.1762 6.62769 10.0011 6.36487 9.94024 6.06644C9.87942 5.768 9.93771 5.45761 10.1027 5.20158L10.1464 5.138L9.50417 4.49633C9.39844 4.3916 9.33674 4.25042 9.33169 4.10168C9.32665 3.95294 9.37864 3.8079 9.47703 3.69624C9.57542 3.58459 9.71276 3.51476 9.86095 3.50105C10.0091 3.48734 10.157 3.53079 10.2742 3.6225L10.329 3.67092L11.9081 5.25C12.1018 5.44368 12.2211 5.69933 12.2453 5.97217L12.2499 6.07483V9.625C12.2508 10.0041 12.1041 10.3687 11.8408 10.6414C11.5775 10.9142 11.2183 11.0737 10.8394 11.0861C10.4606 11.0985 10.0917 10.9629 9.81108 10.7081C9.53046 10.4532 9.36012 10.099 9.33617 9.72067L9.33326 9.625V8.16667H8.74992V11.0833C8.8986 11.0835 9.04161 11.1404 9.14972 11.2425C9.25783 11.3446 9.32289 11.4841 9.33161 11.6325C9.34032 11.7809 9.29203 11.9271 9.1966 12.0411C9.10117 12.1551 8.96581 12.2284 8.81817 12.2459L8.74992 12.25H1.74992C1.60124 12.2498 1.45824 12.1929 1.35013 12.0908C1.24201 11.9888 1.17695 11.8493 1.16824 11.7009C1.15953 11.5524 1.20782 11.4063 1.30324 11.2923C1.39867 11.1782 1.53403 11.105 1.68167 11.0874L1.74992 11.0833V2.91667C1.74983 2.62233 1.86099 2.33884 2.06113 2.12301C2.26127 1.90719 2.53558 1.77499 2.82909 1.75292L2.91659 1.75H7.58326ZM7.58326 7.58333H2.91659V11.0833H7.58326V7.58333ZM7.58326 2.91667H2.91659V6.41667H7.58326V2.91667Z" fill="black"/>
</g>
<defs>
<clipPath id="clip0_2092_1585">
<rect width="14" height="14" fill="white"/>
</clipPath>
</defs>
</svg>
