<svg width="32" height="32" viewBox="0 0 32 32" fill="none" xmlns="http://www.w3.org/2000/svg">
<path fill-rule="evenodd" clip-rule="evenodd" d="M15.5643 2.75056C15.2163 2.85723 14.8537 3.22789 14.7483 3.58656C14.6243 4.00123 14.6283 8.08123 14.7523 8.44523C14.9177 8.92923 15.4843 9.33323 16.0003 9.33323C16.3163 9.33323 16.6857 9.17323 16.9297 8.92923C17.3257 8.53323 17.3337 8.47456 17.3337 5.99989C17.3337 3.52523 17.3257 3.46656 16.9297 3.07056C16.5577 2.69856 16.0897 2.58923 15.5643 2.75056ZM7.07366 6.26523C6.74994 6.38886 6.4841 6.62902 6.32833 6.93856C6.19499 7.19189 6.17899 7.26923 6.20033 7.57323C6.21366 7.76389 6.26699 8.00389 6.31766 8.10656C6.45633 8.38123 9.52566 11.4266 9.78699 11.5506C10.0763 11.6852 10.6217 11.6852 10.9017 11.5479C11.5123 11.2506 11.7937 10.6052 11.6017 9.94123C11.5137 9.63323 11.475 9.58923 9.87633 7.99323C8.42833 6.54923 8.20966 6.35056 7.97766 6.27323C7.68586 6.16861 7.36726 6.16579 7.07366 6.26523ZM3.56433 14.7506C3.08299 14.8986 2.66699 15.4786 2.66699 15.9999C2.66699 16.3159 2.82699 16.6852 3.07099 16.9292C3.46699 17.3252 3.52566 17.3332 6.00033 17.3332C8.47499 17.3332 8.53366 17.3252 8.92966 16.9292C9.17366 16.6852 9.33366 16.3159 9.33366 15.9999C9.33366 15.4639 8.91766 14.8972 8.41366 14.7479C8.02433 14.6319 3.94166 14.6346 3.56433 14.7506ZM9.97366 20.3799C9.87233 20.4106 9.68033 20.5159 9.54699 20.6132C9.12433 20.9266 6.42833 23.6892 6.32166 23.9199C5.80566 25.0319 6.96566 26.1919 8.08033 25.6799C8.37899 25.5426 11.3603 22.5652 11.5243 22.2399C11.6803 21.9332 11.6923 21.3959 11.551 21.1199C11.4067 20.8507 11.1895 20.6275 10.9243 20.4759C10.6817 20.3519 10.223 20.3052 9.97366 20.3799ZM15.7337 22.7159C15.343 22.7959 15.0163 23.0519 14.8083 23.4386C14.6963 23.6492 14.6937 23.7012 14.6937 25.9999C14.6937 28.2986 14.6963 28.3506 14.8083 28.5612C15.0697 29.0492 15.4697 29.2959 16.0003 29.2959C16.531 29.2959 16.931 29.0492 17.1923 28.5612C17.3043 28.3506 17.307 28.2986 17.307 25.9999C17.307 23.7012 17.3043 23.6492 17.1923 23.4386C16.8963 22.8866 16.3123 22.5972 15.7337 22.7159Z" fill="#FF9256"/>
</svg>
