<svg width="101" height="24" viewBox="0 0 101 24" fill="none" xmlns="http://www.w3.org/2000/svg">
<path fill-rule="evenodd" clip-rule="evenodd" d="M9.52691 21.5C14.7479 21.5 19 17.2479 19 12.0269C19 6.75212 14.7479 2.5 9.52691 2.5C4.25212 2.5 0 6.75212 0 12.0269C0 17.2479 4.25212 21.5 9.52691 21.5ZM12.4873 6.96742C12.6487 6.42918 12.1105 6.16006 11.6799 6.483L5.32861 11.0043C4.84419 11.381 4.89802 12.0807 5.43626 12.0807H10.3343L7.69688 12.9958L6.51275 17.1402C6.35127 17.6785 6.88952 17.9476 7.32011 17.6246L13.6714 13.0496C14.1558 12.6728 14.102 11.9731 13.5637 11.9731H11.034L12.4873 6.96742Z" fill="#FF9256"/>
<path d="M30.7598 19H28.2402V4.9082H37.2246V7.03711H30.7598V11.1973H36.668V13.248H30.7598V19ZM38.4848 19V4.9082H40.9164V19H38.4848ZM47.0496 10.3184C46.3725 10.3184 45.8061 10.5527 45.3504 11.0215C44.9012 11.4837 44.6505 12.0794 44.5984 12.8086H49.4324C49.4064 12.0729 49.1753 11.474 48.7391 11.0117C48.3029 10.5495 47.7397 10.3184 47.0496 10.3184ZM49.4422 15.9043H51.7176C51.5613 16.8874 51.0633 17.6849 50.2234 18.2969C49.3836 18.9023 48.3549 19.2051 47.1375 19.2051C45.588 19.2051 44.3706 18.7298 43.4852 17.7793C42.5997 16.8223 42.157 15.5169 42.157 13.8633C42.157 12.2227 42.5965 10.9076 43.4754 9.91797C44.3608 8.92839 45.549 8.43359 47.0398 8.43359C48.5047 8.43359 49.6668 8.9056 50.5262 9.84961C51.3855 10.7871 51.8152 12.0436 51.8152 13.6191V14.4102H44.5789V14.5566C44.5789 15.39 44.8133 16.0605 45.282 16.5684C45.7573 17.0762 46.3921 17.3301 47.1863 17.3301C47.7462 17.3301 48.228 17.2031 48.6316 16.9492C49.0418 16.6888 49.312 16.3405 49.4422 15.9043ZM57.4504 10.3184C56.7733 10.3184 56.2069 10.5527 55.7512 11.0215C55.302 11.4837 55.0513 12.0794 54.9992 12.8086H59.8332C59.8072 12.0729 59.576 11.474 59.1398 11.0117C58.7036 10.5495 58.1405 10.3184 57.4504 10.3184ZM59.843 15.9043H62.1184C61.9621 16.8874 61.4641 17.6849 60.6242 18.2969C59.7844 18.9023 58.7557 19.2051 57.5383 19.2051C55.9888 19.2051 54.7714 18.7298 53.8859 17.7793C53.0005 16.8223 52.5578 15.5169 52.5578 13.8633C52.5578 12.2227 52.9973 10.9076 53.8762 9.91797C54.7616 8.92839 55.9497 8.43359 57.4406 8.43359C58.9055 8.43359 60.0676 8.9056 60.927 9.84961C61.7863 10.7871 62.216 12.0436 62.216 13.6191V14.4102H54.9797V14.5566C54.9797 15.39 55.2141 16.0605 55.6828 16.5684C56.1581 17.0762 56.7928 17.3301 57.5871 17.3301C58.147 17.3301 58.6288 17.2031 59.0324 16.9492C59.4426 16.6888 59.7128 16.3405 59.843 15.9043ZM64.0621 6.22656H66.4938V8.64844H68.4469V10.5234H66.4938V15.9043C66.4938 16.3275 66.5947 16.64 66.7965 16.8418C66.9983 17.0436 67.3141 17.1445 67.7438 17.1445C68.0302 17.1445 68.2613 17.1283 68.4371 17.0957V18.9512C68.1441 19.0163 67.7242 19.0488 67.1773 19.0488C66.0576 19.0488 65.2568 18.834 64.775 18.4043C64.2997 17.9746 64.0621 17.2552 64.0621 16.2461V10.5234H62.5777V8.64844H64.0621V6.22656ZM77.7441 17.7695C76.8392 18.7266 75.6217 19.2051 74.0918 19.2051C72.5618 19.2051 71.3444 18.7266 70.4395 17.7695C69.5345 16.806 69.082 15.4909 69.082 13.8242C69.082 12.1641 69.5378 10.8522 70.4492 9.88867C71.3607 8.91862 72.5749 8.43359 74.0918 8.43359C75.6152 8.43359 76.8294 8.91862 77.7344 9.88867C78.6458 10.8522 79.1016 12.1641 79.1016 13.8242C79.1016 15.4909 78.6491 16.806 77.7441 17.7695ZM72.2363 16.373C72.6921 16.9785 73.3105 17.2812 74.0918 17.2812C74.873 17.2812 75.4915 16.9785 75.9473 16.373C76.403 15.7676 76.6309 14.918 76.6309 13.8242C76.6309 12.737 76.403 11.8906 75.9473 11.2852C75.4915 10.6732 74.873 10.3672 74.0918 10.3672C73.3171 10.3672 72.6986 10.6732 72.2363 11.2852C71.7806 11.8906 71.5527 12.737 71.5527 13.8242C71.5527 14.918 71.7806 15.7676 72.2363 16.373ZM85.9477 8.47266C87.2628 8.47266 88.3077 8.95117 89.0824 9.9082C89.8572 10.8652 90.2445 12.1706 90.2445 13.8242C90.2445 15.4714 89.8604 16.7734 89.0922 17.7305C88.324 18.6875 87.2888 19.166 85.9867 19.166C85.2445 19.166 84.5902 19 84.0238 18.668C83.4574 18.3294 83.031 17.8672 82.7445 17.2812H82.6957V22.4082H80.2641V8.64844H82.6371V10.4355H82.6859C82.9854 9.82357 83.4184 9.34505 83.9848 9C84.5512 8.64844 85.2055 8.47266 85.9477 8.47266ZM85.2055 17.1738C85.9932 17.1738 86.615 16.8743 87.0707 16.2754C87.5264 15.6699 87.7543 14.8529 87.7543 13.8242C87.7543 12.8021 87.5232 11.9883 87.0609 11.3828C86.6052 10.7773 85.9867 10.4746 85.2055 10.4746C84.4503 10.4746 83.8415 10.7806 83.3793 11.3926C82.9171 12.0046 82.6827 12.8151 82.6762 13.8242C82.6827 14.8398 82.9171 15.6536 83.3793 16.2656C83.8415 16.8711 84.4503 17.1738 85.2055 17.1738ZM91.2215 11.6172C91.2215 10.6667 91.6056 9.89844 92.3738 9.3125C93.1421 8.72656 94.1544 8.43359 95.4109 8.43359C96.6219 8.43359 97.6049 8.73307 98.3602 9.33203C99.1219 9.92448 99.519 10.6992 99.5516 11.6562H97.2859C97.2469 11.207 97.0581 10.8555 96.7195 10.6016C96.381 10.3477 95.9285 10.2207 95.3621 10.2207C94.8283 10.2207 94.3986 10.3379 94.073 10.5723C93.7475 10.8001 93.5848 11.1029 93.5848 11.4805C93.5848 12.0534 94.0796 12.4603 95.0691 12.7012L96.9148 13.1113C97.95 13.3522 98.6889 13.6908 99.1316 14.127C99.5743 14.5632 99.7957 15.1654 99.7957 15.9336C99.7957 16.9102 99.3855 17.7012 98.5652 18.3066C97.7449 18.9056 96.6805 19.2051 95.3719 19.2051C94.0828 19.2051 93.0444 18.9121 92.2566 18.3262C91.4754 17.7337 91.0424 16.9427 90.9578 15.9531H93.3504C93.422 16.4284 93.6368 16.793 93.9949 17.0469C94.3595 17.3008 94.8478 17.4277 95.4598 17.4277C96.0522 17.4277 96.5177 17.3171 96.8563 17.0957C97.2013 16.8678 97.3738 16.5618 97.3738 16.1777C97.3738 15.8783 97.2664 15.6406 97.0516 15.4648C96.8432 15.2826 96.4884 15.1263 95.9871 14.9961L94.1023 14.5566C92.1818 14.1074 91.2215 13.1276 91.2215 11.6172Z" fill="black"/>
</svg>
