<svg width="18" height="18" viewBox="0 0 18 18" fill="none" xmlns="http://www.w3.org/2000/svg">
<path fill-rule="evenodd" clip-rule="evenodd" d="M9.02549 18C13.9717 18 18 13.9717 18 9.02549C18 4.02833 13.9717 0 9.02549 0C4.02833 0 0 4.02833 0 9.02549C0 13.9717 4.02833 18 9.02549 18ZM11.83 4.2323C11.983 3.72238 11.4731 3.46742 11.0652 3.77337L5.04816 8.05666C4.58923 8.4136 4.64023 9.07649 5.15014 9.07649H9.79037L7.29178 9.94334L6.16997 13.8697C6.017 14.3796 6.52691 14.6346 6.93484 14.3286L12.9518 9.99433C13.4108 9.63739 13.3598 8.9745 12.8499 8.9745H10.4533L11.83 4.2323Z" fill="#FF9256"/>
</svg>
