<svg width="14" height="14" viewBox="0 0 14 14" fill="none" xmlns="http://www.w3.org/2000/svg">
<path fill-rule="evenodd" clip-rule="evenodd" d="M9.15152 1.10182C9.04485 1.04849 8.92235 1.03765 8.80818 1.07182L5.25 2.18765L1.84818 1.10182C1.49485 0.987653 1.16668 1.25265 1.16668 1.61682V11.0835C1.16668 11.3302 1.32418 11.5485 1.55818 11.6252L5.05818 12.7585C5.18485 12.7994 5.31518 12.7994 5.44185 12.7585L8.75002 11.7027L12.1518 12.8977C12.5052 13.0119 12.8333 12.7469 12.8333 12.3827V2.91602C12.8333 2.66935 12.6758 2.45102 12.4418 2.37435L9.15152 1.10182ZM8.16668 2.46932V10.6318L5.83335 11.3652V3.20268L8.16668 2.46932ZM4.66668 3.35602V11.4068L2.33335 10.6735V2.62268L4.66668 3.35602ZM9.33335 10.5277V2.53435L11.6667 3.42185V11.4127L9.33335 10.5277Z" fill="black"/>
</svg>
