<svg width="14" height="14" viewBox="0 0 14 14" fill="none" xmlns="http://www.w3.org/2000/svg">
<path d="M1.75 7.00008C1.75 7.64175 2.275 8.16675 2.91667 8.16675C3.55833 8.16675 4.08333 7.64175 4.08333 7.00008C4.08333 6.35841 3.55833 5.83341 2.91667 5.83341C2.275 5.83341 1.75 6.35841 1.75 7.00008ZM9.91667 7.00008C9.91667 7.64175 10.4417 8.16675 11.0833 8.16675C11.725 8.16675 12.25 7.64175 12.25 7.00008C12.25 6.35841 11.725 5.83341 11.0833 5.83341C10.4417 5.83341 9.91667 6.35841 9.91667 7.00008ZM5.83333 7.00008C5.83333 7.64175 6.35833 8.16675 7 8.16675C7.64167 8.16675 8.16667 7.64175 8.16667 7.00008C8.16667 6.35841 7.64167 5.83341 7 5.83341C6.35833 5.83341 5.83333 6.35841 5.83333 7.00008Z" fill="black"/>
</svg>
