<svg width="16" height="16" viewBox="0 0 16 16" fill="none" xmlns="http://www.w3.org/2000/svg">
<path d="M7.99992 0.333252C12.2341 0.333252 15.6666 3.76574 15.6666 7.99992C15.6666 8.22452 15.6569 8.44685 15.638 8.66658H14.6337C14.2992 12.0355 11.4568 14.6666 7.99992 14.6666C4.31802 14.6666 1.33325 11.6818 1.33325 7.99992C1.33325 4.54302 3.96437 1.70065 7.33325 1.36617V0.361836C7.55298 0.342911 7.77532 0.333252 7.99992 0.333252ZM7.33325 2.70785C4.70238 3.03591 2.66659 5.28017 2.66659 7.99992C2.66659 10.9455 5.0544 13.3333 7.99992 13.3333C10.7197 13.3333 12.9639 11.2975 13.292 8.66658H7.33325V2.70785ZM8.66658 1.70125V7.33325H14.2986C13.9884 4.3679 11.6319 2.01147 8.66658 1.70125Z" fill="black" fill-opacity="0.4"/>
</svg>
