<svg width="14" height="14" viewBox="0 0 14 14" fill="none" xmlns="http://www.w3.org/2000/svg">
<g clip-path="url(#clip0_1_217)">
<path d="M6.41667 11.6667C6.41667 11.8214 6.47812 11.9697 6.58752 12.0791C6.69692 12.1885 6.84529 12.25 7 12.25C7.15471 12.25 7.30308 12.1885 7.41248 12.0791C7.52187 11.9697 7.58333 11.8214 7.58333 11.6667V7.58333H11.6667C11.8214 7.58333 11.9697 7.52187 12.0791 7.41248C12.1885 7.30308 12.25 7.15471 12.25 7C12.25 6.84529 12.1885 6.69692 12.0791 6.58752C11.9697 6.47812 11.8214 6.41667 11.6667 6.41667H7.58333V2.33333C7.58333 2.17862 7.52187 2.03025 7.41248 1.92085C7.30308 1.81146 7.15471 1.75 7 1.75C6.84529 1.75 6.69692 1.81146 6.58752 1.92085C6.47812 2.03025 6.41667 2.17862 6.41667 2.33333V6.41667H2.33333C2.17862 6.41667 2.03025 6.47812 1.92085 6.58752C1.81146 6.69692 1.75 6.84529 1.75 7C1.75 7.15471 1.81146 7.30308 1.92085 7.41248C2.03025 7.52187 2.17862 7.58333 2.33333 7.58333H6.41667V11.6667Z" fill="white"/>
</g>
<defs>
<clipPath id="clip0_1_217">
<rect width="14" height="14" fill="white"/>
</clipPath>
</defs>
</svg>
