<svg width="16" height="16" viewBox="0 0 16 16" fill="none" xmlns="http://www.w3.org/2000/svg">
<path d="M13.8655 3.99927L11.8333 5.62622V4.16626H9.33325C8.6889 4.16626 8.16626 4.68893 8.16626 5.33325V10.6663C8.16626 11.4947 7.49472 12.1663 6.66626 12.1663H4.86548L4.74829 12.5002C4.54209 13.0834 3.98552 13.5002 3.33325 13.5002C2.50493 13.5002 1.83343 12.8285 1.83325 12.0002C1.83325 11.1718 2.50482 10.5002 3.33325 10.5002C3.98558 10.5002 4.54214 10.917 4.74829 11.5002L4.86548 11.8333H6.66626C7.3106 11.8333 7.83325 11.3106 7.83325 10.6663V5.33325C7.83325 4.50482 8.5048 3.83325 9.33325 3.83325H11.8333V2.37329L13.8655 3.99927Z" stroke="black" stroke-opacity="0.4"/>
</svg>
