<svg width="14" height="14" viewBox="0 0 14 14" fill="none" xmlns="http://www.w3.org/2000/svg">
<g clip-path="url(#clip0_2092_1662)">
<path d="M7.00583 11.375C7.2379 11.375 7.46046 11.4672 7.62455 11.6313C7.78865 11.7954 7.88083 12.0179 7.88083 12.25C7.88083 12.4821 7.78865 12.7046 7.62455 12.8687C7.46046 13.0328 7.2379 13.125 7.00583 13.125H7C6.76794 13.125 6.54538 13.0328 6.38128 12.8687C6.21719 12.7046 6.125 12.4821 6.125 12.25C6.125 12.0179 6.21719 11.7954 6.38128 11.6313C6.54538 11.4672 6.76794 11.375 7 11.375H7.00583ZM3.61783 11.1078C3.73387 10.9069 3.92498 10.7602 4.14913 10.7002C4.37329 10.6401 4.61211 10.6716 4.81308 10.7876L4.81833 10.7905C4.91784 10.848 5.00505 10.9245 5.07499 11.0157C5.14492 11.1069 5.19621 11.211 5.22592 11.322C5.25563 11.433 5.26318 11.5488 5.24815 11.6627C5.23311 11.7767 5.19578 11.8865 5.13829 11.986C5.0808 12.0856 5.00427 12.1728 4.91308 12.2427C4.82188 12.3126 4.7178 12.3639 4.60679 12.3936C4.49577 12.4233 4.37999 12.4309 4.26605 12.4159C4.15212 12.4008 4.04226 12.3635 3.94275 12.306L3.93808 12.3031C3.73712 12.187 3.59048 11.9959 3.53042 11.7718C3.47036 11.5476 3.50181 11.3088 3.61783 11.1078ZM9.18458 10.7835C9.28413 10.7261 9.39401 10.6888 9.50795 10.6739C9.6219 10.6589 9.73767 10.6665 9.84866 10.6963C9.95966 10.7261 10.0637 10.7775 10.1548 10.8475C10.246 10.9175 10.3224 11.0048 10.3798 11.1043L10.3827 11.109C10.497 11.3099 10.5271 11.5477 10.4665 11.7707C10.406 11.9937 10.2597 12.1837 10.0596 12.2992C9.85951 12.4148 9.62183 12.4465 9.39845 12.3874C9.17506 12.3283 8.98411 12.1833 8.86725 11.984L8.86433 11.9787C8.80691 11.8792 8.76965 11.7693 8.7547 11.6554C8.73974 11.5414 8.74738 11.4257 8.77717 11.3147C8.80696 11.2037 8.85833 11.0996 8.92833 11.0085C8.99834 10.9174 9.08561 10.8409 9.18517 10.7835M10.794 9.18517C10.851 9.08485 10.9273 8.99681 11.0185 8.92611C11.1097 8.85541 11.214 8.80344 11.3254 8.77321C11.4368 8.74297 11.553 8.73507 11.6674 8.74994C11.7819 8.76481 11.8922 8.80217 11.9922 8.85987C12.0921 8.91757 12.1796 8.99447 12.2497 9.08613C12.3198 9.1778 12.3711 9.28243 12.4006 9.39399C12.4301 9.50555 12.4372 9.62184 12.4216 9.73618C12.406 9.85051 12.3679 9.96062 12.3095 10.0602L12.3066 10.0648C12.2495 10.1651 12.1732 10.2532 12.082 10.3239C11.9908 10.3946 11.8866 10.4466 11.7752 10.4768C11.6638 10.507 11.5476 10.5149 11.4331 10.5001C11.3187 10.4852 11.2084 10.4478 11.1084 10.3901C11.0085 10.3324 10.921 10.2555 10.8509 10.1639C10.7808 10.0722 10.7295 9.96757 10.7 9.85601C10.6705 9.74445 10.6634 9.62815 10.679 9.51382C10.6946 9.39949 10.7327 9.28938 10.7911 9.18983L10.794 9.18517ZM2.02183 8.86433C2.12138 8.80597 2.23149 8.76788 2.34582 8.75225C2.46016 8.73661 2.57645 8.74375 2.68801 8.77325C2.79957 8.80274 2.9042 8.85401 2.99587 8.92411C3.08753 8.9942 3.16443 9.08174 3.22213 9.18167C3.27983 9.28161 3.31719 9.39197 3.33206 9.5064C3.34693 9.62083 3.33903 9.73707 3.30879 9.84844C3.27856 9.9598 3.22659 10.0641 3.15589 10.1553C3.08519 10.2465 2.99715 10.3228 2.89683 10.3798L2.89158 10.3827C2.69072 10.497 2.45284 10.5271 2.22985 10.4665C2.00686 10.406 1.81688 10.2597 1.70134 10.0596C1.58581 9.85951 1.55412 9.62183 1.61318 9.39845C1.67223 9.17506 1.81725 8.98411 2.01658 8.86725L2.02183 8.86433ZM1.75583 6.125C1.9879 6.125 2.21046 6.21719 2.37455 6.38128C2.53865 6.54538 2.63083 6.76794 2.63083 7C2.63083 7.23206 2.53865 7.45462 2.37455 7.61872C2.21046 7.78281 1.9879 7.875 1.75583 7.875H1.75C1.51794 7.875 1.29538 7.78281 1.13128 7.61872C0.967187 7.45462 0.875 7.23206 0.875 7C0.875 6.76794 0.967187 6.54538 1.13128 6.38128C1.29538 6.21719 1.51794 6.125 1.75 6.125H1.75583ZM12.25 6.125C12.4821 6.125 12.7046 6.21719 12.8687 6.38128C13.0328 6.54538 13.125 6.76794 13.125 7C13.125 7.23206 13.0328 7.45462 12.8687 7.61872C12.7046 7.78281 12.4821 7.875 12.25 7.875H12.2442C12.0121 7.875 11.7895 7.78281 11.6254 7.61872C11.4614 7.45462 11.3692 7.23206 11.3692 7C11.3692 6.76794 11.4614 6.54538 11.6254 6.38128C11.7895 6.21719 12.0121 6.125 12.2442 6.125H12.25ZM1.69517 3.9375C1.75262 3.83792 1.82914 3.75063 1.92035 3.68063C2.01155 3.61064 2.11566 3.5593 2.22672 3.52956C2.33777 3.49982 2.4536 3.49225 2.56758 3.5073C2.68157 3.52235 2.79147 3.55971 2.891 3.61725L2.89625 3.62017C3.09558 3.73702 3.2406 3.92798 3.29966 4.15136C3.35872 4.37475 3.32702 4.61242 3.21149 4.81252C3.09596 5.01263 2.90597 5.15891 2.68298 5.21945C2.45999 5.27999 2.22211 5.24987 2.02125 5.13567L2.016 5.13275C1.91644 5.07534 1.82917 4.99889 1.75917 4.90775C1.68916 4.81661 1.6378 4.71257 1.608 4.60158C1.57821 4.49059 1.57057 4.37481 1.58553 4.26087C1.60049 4.14693 1.63774 4.03704 1.69517 3.9375ZM11.109 3.61725C11.3099 3.50305 11.5477 3.47293 11.7707 3.53347C11.9937 3.59401 12.1837 3.74029 12.2992 3.94039C12.4148 4.14049 12.4465 4.37817 12.3874 4.60155C12.3283 4.82494 12.1833 5.01589 11.984 5.13275L11.9787 5.13567C11.7779 5.24987 11.54 5.27999 11.317 5.21945C11.094 5.15891 10.904 5.01263 10.7885 4.81252C10.673 4.61242 10.6413 4.37475 10.7003 4.15136C10.7594 3.92798 10.9044 3.73702 11.1037 3.62017L11.109 3.61725ZM3.94333 1.694C4.1442 1.5798 4.38208 1.54968 4.60506 1.61022C4.82805 1.67076 5.01804 1.81704 5.13357 2.01714C5.24911 2.21724 5.2808 2.45492 5.22174 2.6783C5.16268 2.90169 5.01766 3.09264 4.81833 3.2095L4.81308 3.21242C4.61222 3.32662 4.37434 3.35674 4.15135 3.2962C3.92836 3.23566 3.73837 3.08938 3.62284 2.88927C3.50731 2.68917 3.47562 2.4515 3.53468 2.22811C3.59373 2.00473 3.73875 1.81377 3.93808 1.69692L3.94333 1.694ZM8.86725 2.01483C8.92466 1.9152 9.00114 1.82786 9.09232 1.7578C9.18351 1.68775 9.28761 1.63635 9.39867 1.60656C9.50973 1.57676 9.62557 1.56915 9.73958 1.58415C9.85358 1.59915 9.96351 1.63648 10.0631 1.694L10.0683 1.69692C10.2677 1.81377 10.4127 2.00473 10.4717 2.22811C10.5308 2.4515 10.4991 2.68917 10.3836 2.88927C10.268 3.08938 10.0781 3.23566 9.85506 3.2962C9.63208 3.35674 9.3942 3.32662 9.19333 3.21242L9.18808 3.2095C9.08853 3.15209 9.00125 3.07564 8.93125 2.9845C8.86125 2.89336 8.80988 2.78932 8.78009 2.67833C8.75029 2.56734 8.74266 2.45156 8.75761 2.33762C8.77257 2.22368 8.80982 2.11438 8.86725 2.01483ZM7.00583 0.875C7.2379 0.875 7.46046 0.967187 7.62455 1.13128C7.78865 1.29538 7.88083 1.51794 7.88083 1.75C7.88083 1.98206 7.78865 2.20462 7.62455 2.36872C7.46046 2.53281 7.2379 2.625 7.00583 2.625H7C6.76794 2.625 6.54538 2.53281 6.38128 2.36872C6.21719 2.20462 6.125 1.98206 6.125 1.75C6.125 1.51794 6.21719 1.29538 6.38128 1.13128C6.54538 0.967187 6.76794 0.875 7 0.875H7.00583Z" fill="black"/>
</g>
<defs>
<clipPath id="clip0_2092_1662">
<rect width="14" height="14" fill="white"/>
</clipPath>
</defs>
</svg>
