<svg width="14" height="14" viewBox="0 0 14 14" fill="none" xmlns="http://www.w3.org/2000/svg">
<path d="M5.22925 10.5001C5.08772 11.4895 4.23681 12.2501 3.20825 12.2501C2.1797 12.2501 1.32879 11.4895 1.18726 10.5001H0.583252V3.50008C0.583252 3.17792 0.844422 2.91675 1.16659 2.91675H9.33325C9.65543 2.91675 9.91659 3.17792 9.91659 3.50008V4.66675H11.6666L13.4166 7.03257V10.5001H12.2293C12.0877 11.4895 11.2368 12.2501 10.2083 12.2501C9.17972 12.2501 8.32881 11.4895 8.18724 10.5001H5.22925ZM8.74992 4.08341H1.74992V8.77954C2.12049 8.40137 2.63697 8.16675 3.20825 8.16675C4.0227 8.16675 4.72576 8.64362 5.05344 9.33342H8.36305C8.46088 9.1275 8.59219 8.94048 8.74992 8.77954V4.08341ZM9.91659 7.58342H12.2499V7.41717L11.0784 5.83342H9.91659V7.58342ZM10.2083 11.0834C10.5892 11.0834 10.9133 10.8399 11.0334 10.5001C11.0657 10.4088 11.0833 10.3107 11.0833 10.2084C11.0833 9.72518 10.6915 9.33342 10.2083 9.33342C9.72502 9.33342 9.33325 9.72518 9.33325 10.2084C9.33325 10.3107 9.35081 10.4088 9.38307 10.5001C9.50318 10.8399 9.82728 11.0834 10.2083 11.0834ZM4.08325 10.2084C4.08325 9.72518 3.6915 9.33342 3.20825 9.33342C2.725 9.33342 2.33325 9.72518 2.33325 10.2084C2.33325 10.3107 2.3508 10.4088 2.38304 10.5001C2.50316 10.8399 2.82727 11.0834 3.20825 11.0834C3.58923 11.0834 3.91334 10.8399 4.03346 10.5001C4.06571 10.4088 4.08325 10.3107 4.08325 10.2084Z" fill="black"/>
</svg>
