<svg width="32" height="32" viewBox="0 0 32 32" fill="none" xmlns="http://www.w3.org/2000/svg">
<path fill-rule="evenodd" clip-rule="evenodd" d="M14.4183 2.7212C12.4356 2.93053 10.669 3.7812 9.22228 5.22387C7.73962 6.70253 6.90762 8.47187 6.71162 10.5639L6.64895 11.2345L6.19428 11.4665C5.55775 11.8017 4.98251 12.2421 4.49295 12.7692C2.34362 15.0399 2.07562 18.4625 3.84095 21.0985C4.20228 21.6385 5.02762 22.4639 5.56762 22.8252C6.4598 23.4243 7.47909 23.8078 8.54495 23.9452C8.78628 23.9745 9.66228 23.9999 10.4916 23.9999H11.9996V21.3332H11.8103C11.7063 21.3332 11.4436 21.2959 11.2249 21.2505C8.73562 20.7372 7.33962 18.1145 8.31295 15.7852C8.63295 15.0225 8.97428 14.6385 11.6703 12.0105C13.5863 10.1452 13.789 9.9892 14.6783 9.69053C15.1476 9.5332 15.2156 9.52387 15.9996 9.52387C16.7836 9.52387 16.8516 9.5332 17.321 9.69053C18.229 9.99453 18.3863 10.1185 20.6036 12.2892C22.6916 14.3319 23.157 14.8252 23.453 15.3185C23.7996 15.9303 23.9871 16.6194 23.9983 17.3225C23.9918 18.1112 23.7553 18.8808 23.3179 19.5371C22.8804 20.1933 22.261 20.7077 21.5356 21.0172C21.1356 21.1825 20.493 21.3332 20.189 21.3332H19.9996V24.0145L21.1863 23.9839C22.105 23.9612 22.493 23.9279 22.9063 23.8399C24.4499 23.5255 25.8672 22.7646 26.9823 21.6519C30.1076 18.5425 30.1076 13.4679 26.985 10.3479C26.1181 9.49121 25.0721 8.83731 23.9223 8.4332L23.4556 8.27587L23.2556 7.8252C22.7925 6.78866 22.1291 5.85387 21.3036 5.07453C20.3962 4.20512 19.31 3.54414 18.1208 3.13769C16.9316 2.73124 15.668 2.58911 14.4183 2.7212ZM15.3596 12.2759C15.0943 12.3772 14.8663 12.5865 12.9983 14.4465C10.8276 16.6065 10.7263 16.7292 10.6783 17.2292C10.6076 17.9692 11.249 18.6665 11.9996 18.6665C12.485 18.6665 12.661 18.5492 13.693 17.5279L14.6663 16.5665V22.3799C14.6663 28.9185 14.641 28.5119 15.065 28.9345C15.187 29.0585 15.3325 29.1569 15.493 29.224C15.6534 29.2912 15.8257 29.3258 15.9996 29.3258C16.1736 29.3258 16.3458 29.2912 16.5062 29.224C16.6667 29.1569 16.8122 29.0585 16.9343 28.9345C17.3583 28.5119 17.333 28.9185 17.333 22.3799V16.5665L18.3063 17.5279C19.3383 18.5492 19.5143 18.6665 19.9996 18.6665C20.7503 18.6665 21.3916 17.9692 21.321 17.2292C21.273 16.7292 21.1716 16.6065 19.001 14.4465C17.0796 12.5332 16.9116 12.3799 16.6236 12.2732C16.2149 12.1267 15.7678 12.1277 15.3596 12.2759Z" fill="#FF9256"/>
</svg>
