<svg width="16" height="16" viewBox="0 0 16 16" fill="none" xmlns="http://www.w3.org/2000/svg">
<path fill-rule="evenodd" clip-rule="evenodd" d="M3.05333 2.03133C2.56467 2.12467 2.12 2.57867 2.02867 3.078C2.01 3.18267 2 3.92867 2 5.28467V7.33333H7.33333V2L5.26 2.00267C4.07333 2.00467 3.13 2.01667 3.05333 2.03133ZM8.66667 4.66667V7.33333H14V5.28467C14 3.92867 13.99 3.18267 13.9713 3.078C13.8773 2.566 13.434 2.12267 12.922 2.02867C12.8173 2.01 12.0713 2 10.7153 2H8.66667V4.66667ZM2 10.7153C2 12.0713 2.01 12.8173 2.02867 12.922C2.12267 13.434 2.566 13.8773 3.078 13.9713C3.18267 13.99 3.92867 14 5.28467 14H7.33333V8.66667H2V10.7153ZM8.66667 11.3333V14H10.7153C12.0713 14 12.8173 13.99 12.922 13.9713C13.1814 13.9212 13.419 13.7925 13.6027 13.6027C13.7925 13.419 13.9212 13.1814 13.9713 12.922C13.99 12.8173 14 12.0713 14 10.7153V8.66667H8.66667V11.3333Z" fill="white"/>
</svg>
