<svg width="14" height="14" viewBox="0 0 14 14" fill="none" xmlns="http://www.w3.org/2000/svg">
<g clip-path="url(#clip0_2092_1672)">
<path d="M4.58374 8.83325V12.1663H2.33374C1.89171 12.1663 1.46759 11.9905 1.15503 11.678C0.842647 11.3655 0.666834 10.9421 0.666748 10.5002V8.83325H4.58374ZM9.24976 8.83325V12.1663H4.74976V8.83325H9.24976ZM13.3337 8.83325V10.5002C13.3337 10.942 13.1577 11.3655 12.8455 11.678C12.5329 11.9905 12.1088 12.1663 11.6667 12.1663H9.41675V8.83325H13.3337ZM4.58374 5.33325V8.66626H0.666748V5.33325H4.58374ZM9.24976 5.33325V8.66626H4.74976V5.33325H9.24976ZM13.3337 5.33325V8.66626H9.41675V5.33325H13.3337ZM4.58374 1.83325V5.16626H0.666748V3.50024L0.674561 3.33521C0.712434 2.95365 0.881527 2.59504 1.15503 2.32153C1.46759 2.00897 1.89171 1.83325 2.33374 1.83325H4.58374ZM9.24976 1.83325V5.16626H4.74976V1.83325H9.24976ZM11.6667 1.83325C12.1088 1.83325 12.5329 2.00897 12.8455 2.32153C13.1579 2.63408 13.3337 3.05829 13.3337 3.50024V5.16626H9.41675V1.83325H11.6667Z" stroke="black" stroke-opacity="0.4"/>
</g>
<defs>
<clipPath id="clip0_2092_1672">
<rect width="14" height="14" fill="white"/>
</clipPath>
</defs>
</svg>
