<svg width="14" height="14" viewBox="0 0 14 14" fill="none" xmlns="http://www.w3.org/2000/svg">
<path d="M1.16626 3.41675H9.33325C9.37917 3.41675 9.41608 3.45388 9.41626 3.49976V5.16675H11.4153L12.9163 7.19604V9.99976H11.7961L11.7346 10.4294C11.6277 11.176 10.9844 11.7498 10.2083 11.7498C9.4321 11.7498 8.78879 11.176 8.68188 10.4294L8.62036 9.99976H4.79614L4.73462 10.4294C4.62777 11.176 3.98444 11.7498 3.20825 11.7498C2.43206 11.7498 1.78874 11.176 1.68188 10.4294L1.62036 9.99976H1.08325V3.49976C1.08343 3.45399 1.1205 3.41692 1.16626 3.41675ZM12.7502 7.25269L12.6516 7.11987L11.4807 5.53589L11.3303 5.33374H9.41626V8.08374H12.7502V7.25269Z" stroke="black"/>
</svg>
