<svg width="14" height="14" viewBox="0 0 14 14" fill="none" xmlns="http://www.w3.org/2000/svg">
<path d="M11.0833 11.6667H2.91667V12.25C2.91667 12.5722 2.6555 12.8333 2.33333 12.8333H1.75C1.42784 12.8333 1.16667 12.5722 1.16667 12.25V7.87499L0.441854 7.69381C0.182173 7.62889 0 7.39555 0 7.12786V6.70833C0 6.54727 0.130584 6.41666 0.291667 6.41666H1.16667L2.61363 3.04042C2.79747 2.61146 3.21926 2.33333 3.68596 2.33333H10.314C10.7808 2.33333 11.2025 2.61146 11.3864 3.04042L12.8333 6.41666H13.7083C13.8694 6.41666 14 6.54727 14 6.70833V7.12786C14 7.39555 13.8178 7.62889 13.5581 7.69381L12.8333 7.87499V12.25C12.8333 12.5722 12.5722 12.8333 12.25 12.8333H11.6667C11.3445 12.8333 11.0833 12.5722 11.0833 12.25V11.6667ZM11.6667 10.5V7.58333H2.33333V10.5H11.6667ZM3.19493 6.41666H10.8051C10.8793 6.41666 10.9528 6.40249 11.0217 6.37495C11.3208 6.25531 11.4664 5.91581 11.3467 5.61668L10.5 3.49999H3.5L2.65333 5.61668C2.62576 5.68559 2.6116 5.75912 2.6116 5.83333C2.6116 6.1555 2.87277 6.41666 3.19493 6.41666ZM2.91667 8.16666C4.26809 8.16666 5.17923 8.60696 5.6501 9.4875C5.72605 9.62954 5.67244 9.80624 5.53041 9.88219C5.4881 9.90482 5.44087 9.91666 5.39289 9.91666H3.5C3.17784 9.91666 2.91667 9.6555 2.91667 9.33333V8.16666ZM11.0833 8.16666V9.33333C11.0833 9.6555 10.8222 9.91666 10.5 9.91666H8.60708C8.55913 9.91666 8.51188 9.90482 8.46959 9.88219C8.32755 9.80624 8.274 9.62954 8.34995 9.4875C8.82082 8.60696 9.73192 8.16666 11.0833 8.16666Z" fill="black"/>
</svg>
