<svg width="14" height="14" viewBox="0 0 14 14" fill="none" xmlns="http://www.w3.org/2000/svg">
<g clip-path="url(#clip0_1_207)">
<path fill-rule="evenodd" clip-rule="evenodd" d="M6.99996 1.16675C7.15467 1.16675 7.30304 1.22821 7.41244 1.3376C7.52183 1.447 7.58329 1.59537 7.58329 1.75008V2.36958C8.00551 2.42201 8.4185 2.53233 8.81063 2.69741L9.11979 2.16191C9.15782 2.09504 9.20869 2.03634 9.26949 1.98921C9.33029 1.94207 9.39981 1.90743 9.47406 1.88728C9.5483 1.86712 9.62579 1.86185 9.70208 1.87176C9.77837 1.88168 9.85194 1.90659 9.91857 1.94505C9.98519 1.98352 10.0435 2.03478 10.0903 2.09589C10.137 2.157 10.1712 2.22675 10.1909 2.30113C10.2105 2.3755 10.2153 2.45303 10.2049 2.52925C10.1944 2.60547 10.169 2.67888 10.1301 2.74525L9.82038 3.28191C10.1587 3.53858 10.4609 3.84133 10.7187 4.18025L11.2554 3.86991C11.3217 3.83101 11.3951 3.80561 11.4714 3.79519C11.5476 3.78477 11.6251 3.78953 11.6995 3.80919C11.7739 3.82885 11.8436 3.86303 11.9047 3.90976C11.9658 3.95649 12.0171 4.01485 12.0556 4.08147C12.094 4.1481 12.1189 4.22167 12.1289 4.29796C12.1388 4.37425 12.1335 4.45174 12.1133 4.52599C12.0932 4.60023 12.0585 4.66975 12.0114 4.73055C11.9643 4.79135 11.9056 4.84222 11.8387 4.88025L11.302 5.18941C11.4648 5.575 11.5768 5.98683 11.6305 6.41675H12.25C12.4047 6.41675 12.553 6.47821 12.6624 6.5876C12.7718 6.697 12.8333 6.84537 12.8333 7.00008C12.8333 7.15479 12.7718 7.30316 12.6624 7.41256C12.553 7.52196 12.4047 7.58341 12.25 7.58341H11.6305C11.578 8.00563 11.4677 8.41862 11.3026 8.81075L11.8381 9.11991C11.905 9.15794 11.9637 9.20881 12.0108 9.26961C12.058 9.33041 12.0926 9.39993 12.1128 9.47418C12.1329 9.54842 12.1382 9.62592 12.1283 9.7022C12.1184 9.77849 12.0935 9.85207 12.055 9.91869C12.0165 9.98531 11.9653 10.0437 11.9041 10.0904C11.843 10.1371 11.7733 10.1713 11.6989 10.191C11.6245 10.2106 11.547 10.2154 11.4708 10.205C11.3946 10.1946 11.3212 10.1692 11.2548 10.1302L10.7181 9.8205C10.4608 10.1593 10.1586 10.4615 9.81979 10.7188L10.1301 11.2555C10.169 11.3219 10.1944 11.3953 10.2049 11.4715C10.2153 11.5477 10.2105 11.6252 10.1909 11.6996C10.1712 11.774 10.137 11.8437 10.0903 11.9049C10.0435 11.966 9.98519 12.0172 9.91857 12.0557C9.85194 12.0942 9.77837 12.1191 9.70208 12.129C9.62579 12.1389 9.5483 12.1336 9.47406 12.1135C9.39981 12.0933 9.33029 12.0587 9.26949 12.0115C9.20869 11.9644 9.15782 11.9057 9.11979 11.8388L8.81063 11.3022C8.41856 11.4676 8.00556 11.5781 7.58329 11.6306V12.2501C7.58329 12.4048 7.52183 12.5532 7.41244 12.6626C7.30304 12.772 7.15467 12.8334 6.99996 12.8334C6.84525 12.8334 6.69688 12.772 6.58748 12.6626C6.47808 12.5532 6.41663 12.4048 6.41663 12.2501V11.6306C5.99441 11.5781 5.58142 11.4678 5.18929 11.3027L4.88013 11.8382C4.8421 11.9051 4.79123 11.9638 4.73043 12.011C4.66963 12.0581 4.60011 12.0927 4.52586 12.1129C4.45162 12.133 4.37412 12.1383 4.29784 12.1284C4.22155 12.1185 4.14797 12.0936 4.08135 12.0551C4.01473 12.0166 3.95637 11.9654 3.90964 11.9043C3.86291 11.8432 3.82873 11.7734 3.80907 11.699C3.7894 11.6247 3.78465 11.5471 3.79507 11.4709C3.80549 11.3947 3.83089 11.3213 3.86979 11.2549L4.17954 10.7182C3.84077 10.4609 3.53856 10.1587 3.28121 9.81991L2.74454 10.1302C2.67818 10.1692 2.60477 10.1946 2.52855 10.205C2.45233 10.2154 2.3748 10.2106 2.30042 10.191C2.22605 10.1713 2.1563 10.1371 2.09519 10.0904C2.03408 10.0437 1.98281 9.98531 1.94435 9.91869C1.90588 9.85207 1.88097 9.77849 1.87106 9.7022C1.86114 9.62592 1.86641 9.54842 1.88657 9.47418C1.90673 9.39993 1.94137 9.33041 1.9885 9.26961C2.03564 9.20881 2.09433 9.15794 2.16121 9.11991L2.69788 8.81075C2.53239 8.41868 2.42169 8.00569 2.36888 7.58341H1.74996C1.59525 7.58341 1.44688 7.52196 1.33748 7.41256C1.22808 7.30316 1.16663 7.15479 1.16663 7.00008C1.16663 6.84537 1.22808 6.697 1.33748 6.5876C1.44688 6.47821 1.59525 6.41675 1.74996 6.41675H2.36946C2.42189 5.99453 2.5322 5.58154 2.69729 5.18941L2.16179 4.88025C2.02891 4.80234 1.93223 4.67504 1.89285 4.52612C1.85348 4.37719 1.87461 4.21874 1.95163 4.08534C2.02865 3.95194 2.15531 3.85442 2.30397 3.81406C2.45263 3.7737 2.61122 3.79378 2.74513 3.86991L3.28179 4.17966C3.53846 3.84133 3.84121 3.53916 4.18013 3.28133L3.86979 2.74466C3.79366 2.61076 3.77358 2.45217 3.81394 2.30351C3.8543 2.15485 3.95182 2.02819 4.08522 1.95117C4.21862 1.87415 4.37707 1.85302 4.52599 1.89239C4.67492 1.93177 4.80222 2.02844 4.88013 2.16133L5.18929 2.698C5.58136 2.53251 5.99435 2.4218 6.41663 2.369V1.75008C6.41663 1.59537 6.47808 1.447 6.58748 1.3376C6.69688 1.22821 6.84525 1.16675 6.99996 1.16675ZM6.99996 7.67383L4.30263 9.23133C4.56356 9.54557 4.87697 9.81221 5.22896 10.0194L5.27154 10.0445C5.79825 10.3441 6.394 10.5011 6.99996 10.5001C7.56579 10.5001 8.10013 10.3659 8.57321 10.1273L8.77154 10.0194C9.12358 9.81227 9.43684 9.54539 9.69729 9.23075L6.99996 7.67383ZM6.41663 3.5485C6.07094 3.60647 5.73601 3.71641 5.42321 3.87458L5.27154 3.95625L5.22896 3.98075C4.7656 4.25333 4.37088 4.62849 4.07513 5.07741L3.98063 5.22908L3.95613 5.27166C3.65635 5.79833 3.49912 6.39408 3.49996 7.00008C3.49996 7.36758 3.55654 7.72341 3.66213 8.05591L3.71871 8.221L6.41663 6.6635V3.5485ZM7.58329 3.5485V6.6635L10.2812 8.221C10.4264 7.83033 10.5005 7.41684 10.5 7.00008C10.5 6.43425 10.3658 5.89991 10.1272 5.42683L10.0438 5.27166L10.0251 5.23958L10.0193 5.22908C9.7467 4.76573 9.37154 4.37102 8.92263 4.07525L8.72838 3.95566C8.42537 3.78326 8.09815 3.6574 7.75771 3.58233L7.58329 3.5485Z" fill="#09244B"/>
</g>
<defs>
<clipPath id="clip0_1_207">
<rect width="14" height="14" fill="white"/>
</clipPath>
</defs>
</svg>
