<svg width="16" height="16" viewBox="0 0 16 16" fill="none" xmlns="http://www.w3.org/2000/svg">
<path fill-rule="evenodd" clip-rule="evenodd" d="M5.86066 2.0414C5.60399 2.0814 5.22332 2.20073 5.00732 2.3094C4.42152 2.61121 3.94447 3.08826 3.64266 3.67407C3.46399 4.0294 3.33332 4.59073 3.33332 5.00007C3.33332 5.4094 3.46399 5.97073 3.64266 6.32607C3.94447 6.91187 4.42152 7.38892 5.00732 7.69073C5.36266 7.8694 5.92399 8.00007 6.33332 8.00007C6.74266 8.00007 7.30399 7.8694 7.65932 7.69073C8.24512 7.38892 8.72217 6.91187 9.02399 6.32607C9.20266 5.97073 9.33332 5.4094 9.33332 5.00007C9.33332 4.59073 9.20266 4.0294 9.02399 3.67407C8.72217 3.08826 8.24512 2.61121 7.65932 2.3094C7.14066 2.0494 6.46066 1.94807 5.86066 2.0414ZM11.6687 4.02673C11.3509 4.08453 11.0517 4.21758 10.7959 4.41475C10.5402 4.61193 10.3354 4.8675 10.1987 5.16007C10.048 5.48073 10.014 5.63607 10.014 6.00007C10.014 6.16873 10.03 6.37273 10.05 6.4534C10.1053 6.6794 10.2967 7.06207 10.4467 7.24873C10.8133 7.7034 11.4267 8.00007 12 8.00007C12.414 8.00007 12.9173 7.82007 13.2487 7.5534C13.7033 7.18673 14 6.5734 14 6.00007C14 5.42673 13.7027 4.81273 13.2487 4.4474C13.0243 4.27798 12.7724 4.14853 12.504 4.06473C12.3273 4.01607 11.8467 3.99407 11.6687 4.02673ZM5.74199 8.69607C3.91532 8.85873 2.16999 9.8374 1.55999 11.0414C1.40066 11.3561 1.34666 11.5767 1.34866 11.9067C1.34999 12.1394 1.36266 12.2361 1.41066 12.3734C1.66599 13.1041 2.39266 13.5687 3.63999 13.7987C4.40266 13.9394 5.06399 13.9847 6.33332 13.9847C7.60266 13.9847 8.26399 13.9394 9.02666 13.7987C10.2713 13.5694 11.0013 13.1027 11.256 12.3734C11.3433 12.1214 11.3447 11.6914 11.2573 11.4147C11.084 10.8627 10.6813 10.3307 10.1033 9.89073C8.93332 9.00007 7.31199 8.55607 5.74199 8.69607ZM11.48 8.7054C11.1827 8.74673 10.9333 8.80207 10.9333 8.82807C10.9333 8.83807 10.9993 8.89807 11.08 8.96007C11.2933 9.12473 11.802 9.66273 11.9813 9.91407C12.1981 10.2251 12.373 10.5633 12.5013 10.9201C12.68 11.4601 12.71 11.9594 12.5987 12.5441L12.5793 12.6487L12.8827 12.6314C13.814 12.5774 14.5133 12.3541 14.904 11.9861C15.54 11.3861 15.4567 10.4947 14.6947 9.73207C13.9153 8.95273 12.6393 8.5454 11.48 8.7054Z" fill="#FF9256"/>
</svg>
