<svg width="16" height="16" viewBox="0 0 16 16" fill="none" xmlns="http://www.w3.org/2000/svg">
<path d="M11.3364 10.6685H12.6697V2.66854H6.00304V4.00187H11.3364V10.6685ZM11.3364 12.0019V14.0013C11.3364 14.3698 11.0364 14.6685 10.6651 14.6685H2.67428C2.30357 14.6685 2.00317 14.3721 2.00317 14.0013L2.00491 4.66912C2.00498 4.30061 2.30493 4.00187 2.67612 4.00187H4.66971V2.00187C4.66971 1.63368 4.96819 1.33521 5.33637 1.33521H13.3364C13.7046 1.33521 14.0031 1.63368 14.0031 2.00187V11.3352C14.0031 11.7034 13.7046 12.0019 13.3364 12.0019H11.3364ZM3.33812 5.3352L3.33663 13.3352H10.0031V5.3352H3.33812ZM4.66971 10.6685H7.66972C7.85379 10.6685 8.00305 10.5193 8.00305 10.3352C8.00305 10.1511 7.85379 10.0019 7.66972 10.0019H5.66971C4.74923 10.0019 4.00304 9.25567 4.00304 8.3352C4.00304 7.41473 4.74923 6.66853 5.66971 6.66853H6.00304V6.00187H7.33639V6.66853H8.66972V8.00187H5.66971C5.48561 8.00187 5.33637 8.15113 5.33637 8.3352C5.33637 8.51927 5.48561 8.66853 5.66971 8.66853H7.66972C8.59019 8.66853 9.33639 9.41473 9.33639 10.3352C9.33639 11.2557 8.59019 12.0019 7.66972 12.0019H7.33639V12.6685H6.00304V12.0019H4.66971V10.6685Z" fill="black" fill-opacity="0.4"/>
</svg>
