<svg width="14" height="14" viewBox="0 0 14 14" fill="none" xmlns="http://www.w3.org/2000/svg">
<g clip-path="url(#clip0_1_199)">
<path d="M8.16676 3.64008C8.36217 3.64008 8.50976 3.72233 8.62001 3.83958C8.79792 4.02858 8.87317 4.30683 8.98401 4.53725C9.55216 5.72034 10.4491 6.71472 11.5676 7.40141L11.8208 7.55133C12.05 7.69075 12.2495 7.8535 12.2501 8.16558C12.2507 8.59258 11.8791 8.74075 11.5676 8.9315C10.4491 9.61822 9.55219 10.6126 8.98401 11.7957C8.87317 12.0267 8.79734 12.3049 8.62001 12.4939C8.51034 12.6112 8.36217 12.6934 8.16676 12.6934C7.97134 12.6934 7.82317 12.6112 7.71351 12.4939C7.61084 12.3848 7.54317 12.2477 7.48309 12.1077L7.39559 11.8977C7.38097 11.8636 7.36561 11.8297 7.34951 11.7962C6.78135 10.6132 5.88439 9.61878 4.76592 8.93208L4.57867 8.82066C4.32609 8.669 4.08284 8.49633 4.08342 8.16558C4.08459 7.73975 4.45501 7.59275 4.76592 7.402C5.88439 6.7153 6.78135 5.72093 7.34951 4.53783C7.46034 4.30683 7.53617 4.02858 7.71351 3.83958C7.82317 3.72291 7.97134 3.64008 8.16676 3.64008ZM3.93584 3.398C4.02276 3.50475 4.07467 3.6255 4.13417 3.74858C4.29401 4.08108 4.53551 4.36691 4.83476 4.57808L4.95026 4.65391C5.44959 4.96016 5.46826 5.47641 5.02026 5.79958L4.95026 5.84625C4.59668 6.06327 4.31314 6.37759 4.13359 6.75158L4.06709 6.89275C4.01051 7.00941 3.94459 7.12083 3.83026 7.19491C3.64651 7.31275 3.35367 7.31275 3.16992 7.19491C3.01534 7.09575 2.94242 6.91025 2.86659 6.75158C2.68701 6.37761 2.40347 6.06329 2.04992 5.84625C1.94609 5.78208 1.84692 5.722 1.76117 5.63216C1.67733 5.52218 1.63197 5.38769 1.63208 5.2494C1.63219 5.11111 1.67775 4.97668 1.76176 4.86683C1.84926 4.77583 1.94259 4.71983 2.05051 4.65391C2.40386 4.43681 2.68719 4.1225 2.86659 3.74858C2.92726 3.62258 2.97567 3.50708 3.06492 3.39858C3.18154 3.28523 3.33775 3.22181 3.50038 3.22181C3.66301 3.22181 3.81923 3.28523 3.93584 3.39858V3.398ZM5.83342 1.16675C5.98813 1.16675 6.1365 1.22821 6.2459 1.3376C6.3553 1.447 6.41676 1.59537 6.41676 1.75008C6.57147 1.75008 6.71984 1.81154 6.82923 1.92094C6.93863 2.03033 7.00009 2.17871 7.00009 2.33341C7.00009 2.48812 6.93863 2.6365 6.82923 2.74589C6.71984 2.85529 6.57147 2.91675 6.41676 2.91675C6.41676 3.07146 6.3553 3.21983 6.2459 3.32923C6.1365 3.43862 5.98813 3.50008 5.83342 3.50008C5.67871 3.50008 5.53034 3.43862 5.42094 3.32923C5.31155 3.21983 5.25009 3.07146 5.25009 2.91675C5.09538 2.91675 4.94701 2.85529 4.83761 2.74589C4.72821 2.6365 4.66676 2.48812 4.66676 2.33341C4.66676 2.17871 4.72821 2.03033 4.83761 1.92094C4.94701 1.81154 5.09538 1.75008 5.25009 1.75008C5.25009 1.59537 5.31155 1.447 5.42094 1.3376C5.53034 1.22821 5.67871 1.16675 5.83342 1.16675Z" fill="#AE4B15"/>
</g>
<defs>
<clipPath id="clip0_1_199">
<rect width="14" height="14" fill="white"/>
</clipPath>
</defs>
</svg>
