<svg width="14" height="14" viewBox="0 0 14 14" fill="none" xmlns="http://www.w3.org/2000/svg">
<path d="M2.33301 8.08301H4.66699C4.71287 8.08318 4.75 8.12107 4.75 8.16699V11.667C4.74982 11.7128 4.71276 11.7498 4.66699 11.75H2.33301C2.28724 11.7498 2.25018 11.7128 2.25 11.667V8.16699C2.25 8.12107 2.28713 8.08318 2.33301 8.08301ZM7 8.08301H11.667C11.7129 8.08318 11.75 8.12107 11.75 8.16699V11.667C11.7498 11.7128 11.7128 11.7498 11.667 11.75H7C6.95408 11.75 6.91717 11.7129 6.91699 11.667V8.16699C6.91699 8.12096 6.95397 8.08301 7 8.08301ZM2.33301 2.25H7C7.04592 2.25 7.08283 2.28713 7.08301 2.33301V5.83301C7.08301 5.87904 7.04603 5.91699 7 5.91699H2.33301C2.28713 5.91682 2.25 5.87893 2.25 5.83301V2.33301C2.25018 2.28725 2.28725 2.25018 2.33301 2.25ZM9.33301 2.25H11.667C11.7128 2.25018 11.7498 2.28724 11.75 2.33301V5.83301C11.75 5.87893 11.7129 5.91682 11.667 5.91699H9.33301C9.28712 5.91682 9.25 5.87893 9.25 5.83301V2.33301C9.25017 2.28724 9.28724 2.25017 9.33301 2.25Z" stroke="black" stroke-opacity="0.4"/>
</svg>
