<svg width="16" height="16" viewBox="0 0 16 16" fill="none" xmlns="http://www.w3.org/2000/svg">
<path d="M8.00008 0.666748L14.3334 4.33341V11.6667L8.00008 15.3334L1.66675 11.6667V4.33341L8.00008 0.666748ZM8.00008 2.20741L3.00008 5.10215V10.898L8.00008 13.7927L13.0001 10.898V5.10215L8.00008 2.20741ZM8.00008 10.6667C6.52732 10.6667 5.33341 9.47281 5.33341 8.00008C5.33341 6.52732 6.52732 5.33342 8.00008 5.33342C9.47282 5.33342 10.6667 6.52732 10.6667 8.00008C10.6667 9.47281 9.47282 10.6667 8.00008 10.6667ZM8.00008 9.33342C8.73648 9.33342 9.33342 8.73648 9.33342 8.00008C9.33342 7.26368 8.73648 6.66675 8.00008 6.66675C7.26368 6.66675 6.66675 7.26368 6.66675 8.00008C6.66675 8.73648 7.26368 9.33342 8.00008 9.33342Z" fill="black" fill-opacity="0.4"/>
</svg>
