<svg width="16" height="16" viewBox="0 0 16 16" fill="none" xmlns="http://www.w3.org/2000/svg">
<path d="M10.8077 11.629C10.8639 11.6687 10.9311 11.69 10.9999 11.69C11.184 11.69 11.3333 11.5408 11.3333 11.3567V4.64331C11.3333 4.57447 11.3119 4.50732 11.2722 4.45108C11.1661 4.30068 10.9581 4.26482 10.8077 4.37099L6.05239 7.72767C6.02132 7.7496 5.99418 7.77667 5.97225 7.8078C5.86612 7.9582 5.90199 8.16613 6.05239 8.27233L10.8077 11.629ZM5.33325 4.66667C5.33325 4.29848 5.03479 4 4.66658 4C4.29839 4 3.99992 4.29848 3.99992 4.66667V11.3333C3.99992 11.7015 4.29839 12 4.66658 12C5.03479 12 5.33325 11.7015 5.33325 11.3333V4.66667Z" fill="black" fill-opacity="0.4"/>
</svg>
