<svg width="16" height="16" viewBox="0 0 16 16" fill="none" xmlns="http://www.w3.org/2000/svg">
<path d="M4.8607 13.8827L1.33325 14.6666L2.11713 11.1391C1.61688 10.2037 1.33325 9.13492 1.33325 7.99992C1.33325 4.31802 4.31802 1.33325 7.99992 1.33325C11.6818 1.33325 14.6666 4.31802 14.6666 7.99992C14.6666 11.6818 11.6818 14.6666 7.99992 14.6666C6.86492 14.6666 5.79619 14.383 4.8607 13.8827ZM5.05375 12.4739L5.48944 12.7069C6.25491 13.1163 7.11025 13.3333 7.99992 13.3333C10.9455 13.3333 13.3333 10.9455 13.3333 7.99992C13.3333 5.0544 10.9455 2.66659 7.99992 2.66659C5.0544 2.66659 2.66659 5.0544 2.66659 7.99992C2.66659 8.88959 2.88358 9.74492 3.29291 10.5104L3.52589 10.9461L3.08936 12.9105L5.05375 12.4739ZM4.66659 7.99992H5.99992C5.99992 9.10452 6.89532 9.99992 7.99992 9.99992C9.10452 9.99992 9.99992 9.10452 9.99992 7.99992H11.3333C11.3333 9.84085 9.84085 11.3333 7.99992 11.3333C6.15897 11.3333 4.66659 9.84085 4.66659 7.99992Z" fill="black" fill-opacity="0.4"/>
</svg>
